<?xml version="1.0" standalone="no"?>
<!DOCTYPE svg PUBLIC "-//W3C//DTD SVG 20010904//EN"
 "http://www.w3.org/TR/2001/REC-SVG-20010904/DTD/svg10.dtd">
<svg version="1.0" xmlns="http://www.w3.org/2000/svg"
 width="512.000000pt" height="512.000000pt" viewBox="0 0 512.000000 512.000000"
 preserveAspectRatio="xMidYMid meet">
<metadata>
Created by potrace 1.14, written by Peter Selinger 2001-2017
</metadata>
<g transform="translate(0.000000,512.000000) scale(0.100000,-0.100000)"
fill="#000000" stroke="none">
<path d="M3501 4914 c-88 -31 -165 -93 -215 -173 -16 -25 -41 -98 -62 -179
-19 -75 -46 -175 -60 -222 -171 -576 -459 -1154 -737 -1479 -73 -85 -249 -250
-325 -305 l-83 -58 -67 44 c-85 57 -202 113 -267 129 -76 18 -83 24 -80 61 2
18 6 83 10 143 4 61 8 124 10 140 2 17 6 62 9 100 4 39 8 81 11 95 2 14 7 52
10 85 3 33 8 69 10 80 2 11 7 38 10 60 13 94 56 318 79 415 53 216 110 378
198 560 117 242 125 264 106 306 -24 51 -128 44 -249 -18 -150 -77 -238 -198
-318 -435 -65 -194 -108 -415 -136 -713 -13 -134 -23 -390 -25 -636 l-2 -200
-61 -13 c-151 -31 -231 -113 -221 -225 9 -90 117 -176 241 -192 49 -6 53 -8
54 -33 0 -14 2 -37 4 -51 1 -14 6 -73 9 -131 4 -58 8 -116 11 -130 2 -13 6
-48 9 -77 3 -28 8 -67 11 -85 3 -17 7 -45 9 -62 8 -53 17 -119 22 -145 2 -14
7 -41 10 -60 15 -94 68 -308 105 -422 39 -119 43 -126 63 -119 24 9 25 40 12
296 -13 274 -18 460 -20 733 0 155 0 282 0 282 15 0 183 35 222 46 46 13 54
13 67 0 8 -8 15 -17 15 -21 0 -13 181 -261 259 -355 122 -146 178 -208 336
-366 370 -371 662 -592 1070 -809 71 -38 293 -110 410 -134 286 -57 532 -47
703 30 33 16 42 25 42 45 0 23 -2 24 -37 18 -111 -22 -337 6 -519 65 -294 94
-551 242 -882 509 -177 141 -259 218 -617 575 -181 182 -381 377 -443 435 -61
59 -112 109 -112 112 0 3 26 18 58 34 31 15 95 53 142 83 528 344 967 940
1224 1658 68 191 129 444 142 585 10 114 -56 163 -165 124z m-2170 -2351 c0
-54 2 -129 3 -166 l3 -69 -46 7 c-103 16 -198 72 -202 121 -1 8 -2 24 -3 37
-7 85 93 161 217 166 l27 1 1 -97z m384 -33 c61 -63 105 -115 105 -124 0 -7
-42 -25 -70 -31 -8 -2 -26 -8 -40 -13 -14 -5 -47 -13 -73 -16 l-48 -7 5 128
c2 70 5 134 5 141 1 21 55 -15 116 -78z"/>
</g>
</svg>
