<?xml version="1.0" standalone="no"?>
<!DOCTYPE svg PUBLIC "-//W3C//DTD SVG 20010904//EN"
 "http://www.w3.org/TR/2001/REC-SVG-20010904/DTD/svg10.dtd">
<svg version="1.0" xmlns="http://www.w3.org/2000/svg"
 width="512.000000pt" height="512.000000pt" viewBox="0 0 512.000000 512.000000"
 preserveAspectRatio="xMidYMid meet">
<metadata>
Created by potrace 1.14, written by Peter Selinger 2001-2017
</metadata>
<g transform="translate(0.000000,512.000000) scale(0.100000,-0.100000)"
fill="#000000" stroke="none">
<path d="M2257 3956 c-39 -14 -55 -24 -100 -65 -41 -37 -54 -66 -98 -227 -141
-515 -355 -925 -610 -1170 -67 -64 -158 -134 -174 -134 -3 0 -21 11 -38 24
-41 32 -153 84 -194 92 -33 6 -33 7 -33 65 0 80 26 325 51 479 42 262 97 444
198 649 28 57 51 117 51 132 0 32 -23 49 -67 49 -44 0 -147 -54 -192 -101 -51
-52 -113 -176 -146 -292 -49 -174 -85 -510 -85 -808 l0 -146 -59 -16 c-153
-43 -176 -182 -42 -249 30 -16 67 -28 81 -28 l27 0 7 -107 c15 -228 62 -496
118 -671 23 -74 33 -92 46 -90 14 3 17 14 15 58 -13 287 -23 596 -23 691 l0
116 78 16 c42 8 84 18 93 22 11 4 28 -13 61 -62 210 -316 597 -687 924 -886
156 -95 234 -128 394 -168 128 -31 356 -34 440 -5 78 27 90 34 83 52 -5 13
-16 14 -63 9 -73 -8 -215 16 -335 57 -205 70 -397 189 -638 396 -139 119 -694
674 -680 679 29 10 193 119 253 168 80 65 222 208 291 295 201 251 383 628
453 943 29 126 33 194 14 220 -19 23 -58 29 -101 13z m-1435 -1601 l3 -105
-29 0 c-39 0 -113 37 -127 62 -25 47 15 119 77 138 72 21 72 21 76 -95z m218
55 c16 -11 47 -42 69 -69 l41 -49 -47 -15 c-27 -8 -60 -18 -75 -21 l-28 -6 0
90 c0 49 3 90 6 90 3 0 19 -9 34 -20z"/>
<path d="M3890 2505 l0 -95 -45 0 -45 0 0 -100 c0 -55 -1 -103 -2 -107 -2 -5
18 -9 44 -11 l46 -3 4 -137 c4 -150 16 -188 75 -244 65 -62 203 -92 314 -69
95 20 95 21 57 131 -23 65 -38 94 -48 92 -61 -14 -69 -13 -89 7 -19 19 -21 33
-21 121 l0 100 70 0 70 0 0 105 0 105 -70 0 -70 0 0 100 0 100 -145 0 -145 0
0 -95z"/>
<path d="M2154 2443 c4 -10 66 -167 138 -350 l131 -331 144 -7 c80 -4 148 -4
153 1 7 7 213 499 281 672 l9 22 -139 0 -138 0 -74 -180 c-46 -115 -76 -176
-80 -167 -5 8 -36 88 -69 179 l-61 165 -97 6 c-53 4 -121 7 -151 7 -46 0 -52
-2 -47 -17z"/>
<path d="M3270 2447 c-78 -23 -123 -49 -182 -108 -48 -48 -60 -67 -79 -128
-48 -160 13 -328 148 -408 140 -82 369 -86 492 -9 73 46 73 49 -9 131 l-73 74
-36 -18 c-50 -26 -95 -34 -142 -26 -38 7 -99 47 -99 66 0 5 103 9 241 9 l241
0 -4 88 c-3 71 -10 100 -32 145 -34 71 -109 139 -184 168 -71 27 -216 35 -282
16z m196 -221 c19 -19 34 -39 34 -45 0 -7 -37 -11 -110 -11 -60 0 -110 3 -110
8 1 18 29 56 51 68 13 7 41 13 63 14 30 0 45 -7 72 -34z"/>
</g>
</svg>
